# xmcd
#
# Track frame offsets:
# 150
# 48569
# 107511
# 190662
# 254133
# 308854
#
# Disc length: 4620 seconds
#
# Revision: 0
# Processed by: cddbd v1.5.2PL0 Copyright (c) Steve Scherf et al.
# Submitted via: Audion 3.0.2 (http://www.panic.com/audion/)
#
DISCID=4f120a06
DTITLE=Charlie Haden 4 Vancouver 30.1.87 - Charlie Haden 4 Vancouver 30.1.87
DYEAR=1900
DGENRE=
TTITLE0=1
TTITLE1=2
TTITLE2=3
TTITLE3=4
TTITLE4=5
TTITLE5=6
EXTD=
EXTT0=
EXTT1=
EXTT2=
EXTT3=
EXTT4=
EXTT5=
PLAYORDER=
